<svg width="31" height="31" viewBox="0 0 31 31" fill="none" xmlns="http://www.w3.org/2000/svg">
<g id="ic:outline-payments">
<path id="Vector" d="M24.4109 17.8452V7.84521C24.4109 6.47021 23.2859 5.34521 21.9109 5.34521H4.41089C3.03589 5.34521 1.91089 6.47021 1.91089 7.84521V17.8452C1.91089 19.2202 3.03589 20.3452 4.41089 20.3452H21.9109C23.2859 20.3452 24.4109 19.2202 24.4109 17.8452ZM21.9109 17.8452H4.41089V7.84521H21.9109V17.8452ZM13.1609 9.09521C11.0859 9.09521 9.41089 10.7702 9.41089 12.8452C9.41089 14.9202 11.0859 16.5952 13.1609 16.5952C15.2359 16.5952 16.9109 14.9202 16.9109 12.8452C16.9109 10.7702 15.2359 9.09521 13.1609 9.09521ZM29.4109 9.09521V22.8452C29.4109 24.2202 28.2859 25.3452 26.9109 25.3452H5.66089V22.8452H26.9109V9.09521H29.4109Z" fill="white"/>
</g>
</svg>
