<svg width="31" height="31" viewBox="0 0 31 31" fill="none" xmlns="http://www.w3.org/2000/svg">
<g id="ic:outline-shopping-cart">
<path id="Vector" d="M20.4143 16.7161C21.3518 16.7161 22.1768 16.2036 22.6018 15.4286L27.0768 7.31606C27.1822 7.1266 27.2362 6.9129 27.2336 6.69613C27.231 6.47936 27.1718 6.26703 27.062 6.08014C26.9521 5.89325 26.7954 5.73829 26.6072 5.63059C26.4191 5.52288 26.2061 5.46617 25.9893 5.46606H7.48931L6.31431 2.96606H2.22681V5.46606H4.72681L9.22681 14.9536L7.53931 18.0036C6.62681 19.6786 7.82681 21.7161 9.72681 21.7161H24.7268V19.2161H9.72681L11.1018 16.7161H20.4143ZM8.67681 7.96606H23.8643L20.4143 14.2161H11.6393L8.67681 7.96606ZM9.72681 22.9661C8.35181 22.9661 7.23931 24.0911 7.23931 25.4661C7.23931 26.8411 8.35181 27.9661 9.72681 27.9661C11.1018 27.9661 12.2268 26.8411 12.2268 25.4661C12.2268 24.0911 11.1018 22.9661 9.72681 22.9661ZM22.2268 22.9661C20.8518 22.9661 19.7393 24.0911 19.7393 25.4661C19.7393 26.8411 20.8518 27.9661 22.2268 27.9661C23.6018 27.9661 24.7268 26.8411 24.7268 25.4661C24.7268 24.0911 23.6018 22.9661 22.2268 22.9661Z" fill="white"/>
</g>
</svg>
