<svg width="31" height="31" viewBox="0 0 31 31" fill="none" xmlns="http://www.w3.org/2000/svg">
<g id="ic:sharp-pie-chart-outline">
<path id="Vector" d="M15.9768 2.6228C9.10181 2.6228 3.47681 8.2478 3.47681 15.1228C3.47681 21.9978 9.10181 27.6228 15.9768 27.6228C22.8518 27.6228 28.4768 21.9978 28.4768 15.1228C28.4768 8.2478 22.8518 2.6228 15.9768 2.6228ZM17.2268 5.2103C21.7393 5.7728 25.3268 9.3728 25.8893 13.8728H17.2268V5.2103ZM5.97681 15.1228C5.97681 10.0478 9.81431 5.8228 14.7268 5.2103V25.0478C9.81431 24.4228 5.97681 20.1978 5.97681 15.1228ZM17.2268 25.0353V16.3728H25.8893C25.6103 18.5728 24.6079 20.6177 23.0398 22.1858C21.4717 23.7539 19.4268 24.7563 17.2268 25.0353Z" fill="white"/>
</g>
</svg>
