<svg width="31" height="31" viewBox="0 0 31 31" fill="none" xmlns="http://www.w3.org/2000/svg">
<g id="material-symbols:settings-outline-rounded">
<path id="Vector" d="M14.5082 27.957C13.9457 27.957 13.4615 27.7695 13.0557 27.3945C12.6498 27.0195 12.4048 26.5612 12.3207 26.0195L12.0394 23.957C11.7686 23.8529 11.5136 23.7279 11.2744 23.582C11.0352 23.4362 10.8007 23.2799 10.5707 23.1133L8.63315 23.9258C8.11232 24.1549 7.59149 24.1758 7.07065 23.9883C6.54982 23.8008 6.14357 23.4674 5.8519 22.9883L4.38315 20.4258C4.09149 19.9466 4.00815 19.4362 4.13315 18.8945C4.25815 18.3529 4.5394 17.9049 4.9769 17.5508L6.63315 16.3008C6.61232 16.1549 6.6019 16.0141 6.6019 15.8783V15.0345C6.6019 14.8995 6.61232 14.7591 6.63315 14.6133L4.9769 13.3633C4.5394 13.0091 4.25815 12.5612 4.13315 12.0195C4.00815 11.4779 4.09149 10.9674 4.38315 10.4883L5.8519 7.92578C6.14357 7.44661 6.54982 7.11328 7.07065 6.92578C7.59149 6.73828 8.11232 6.75911 8.63315 6.98828L10.5707 7.80078C10.7998 7.63411 11.0394 7.47786 11.2894 7.33203C11.5394 7.1862 11.7894 7.0612 12.0394 6.95703L12.3207 4.89453C12.404 4.35286 12.649 3.89453 13.0557 3.51953C13.4623 3.14453 13.9465 2.95703 14.5082 2.95703H17.4457C18.0082 2.95703 18.4927 3.14453 18.8994 3.51953C19.3061 3.89453 19.5507 4.35286 19.6332 4.89453L19.9144 6.95703C20.1852 7.0612 20.4407 7.1862 20.6807 7.33203C20.9207 7.47786 21.1548 7.63411 21.3832 7.80078L23.3207 6.98828C23.8415 6.75911 24.3623 6.73828 24.8832 6.92578C25.404 7.11328 25.8102 7.44661 26.1019 7.92578L27.5707 10.4883C27.8623 10.9674 27.9457 11.4779 27.8207 12.0195C27.6957 12.5612 27.4144 13.0091 26.9769 13.3633L25.3207 14.6133C25.3415 14.7591 25.3519 14.8999 25.3519 15.0358V15.8783C25.3519 16.0141 25.3311 16.1549 25.2894 16.3008L26.9457 17.5508C27.3832 17.9049 27.6644 18.3529 27.7894 18.8945C27.9144 19.4362 27.8311 19.9466 27.5394 20.4258L26.0394 22.9883C25.7477 23.4674 25.3415 23.8008 24.8207 23.9883C24.2998 24.1758 23.779 24.1549 23.2582 23.9258L21.3832 23.1133C21.154 23.2799 20.9144 23.4362 20.6644 23.582C20.4144 23.7279 20.1644 23.8529 19.9144 23.957L19.6332 26.0195C19.5498 26.5612 19.3052 27.0195 18.8994 27.3945C18.4936 27.7695 18.009 27.957 17.4457 27.957H14.5082ZM14.7269 25.457H17.1957L17.6332 22.1445C18.279 21.9779 18.8782 21.7333 19.4307 21.4108C19.9832 21.0883 20.4882 20.6974 20.9457 20.2383L24.0394 21.5195L25.2582 19.3945L22.5707 17.3633C22.6748 17.0716 22.7477 16.7645 22.7894 16.442C22.8311 16.1195 22.8519 15.7912 22.8519 15.457C22.8519 15.1229 22.8311 14.7949 22.7894 14.4733C22.7477 14.1516 22.6748 13.8441 22.5707 13.5508L25.2582 11.5195L24.0394 9.39453L20.9457 10.707C20.4873 10.2279 19.9823 9.82703 19.4307 9.50453C18.879 9.18203 18.2798 8.93703 17.6332 8.76953L17.2269 5.45703H14.7582L14.3207 8.76953C13.6748 8.9362 13.0761 9.1812 12.5244 9.50453C11.9727 9.82786 11.4673 10.2183 11.0082 10.6758L7.9144 9.39453L6.69565 11.5195L9.38315 13.5195C9.27899 13.832 9.20607 14.1445 9.1644 14.457C9.12274 14.7695 9.1019 15.1029 9.1019 15.457C9.1019 15.7904 9.12274 16.1133 9.1644 16.4258C9.20607 16.7383 9.27899 17.0508 9.38315 17.3633L6.69565 19.3945L7.9144 21.5195L11.0082 20.207C11.4665 20.6862 11.9719 21.0874 12.5244 21.4108C13.0769 21.7341 13.6757 21.9787 14.3207 22.1445L14.7269 25.457ZM16.0394 19.832C17.2477 19.832 18.279 19.4049 19.1332 18.5508C19.9873 17.6966 20.4144 16.6654 20.4144 15.457C20.4144 14.2487 19.9873 13.2174 19.1332 12.3633C18.279 11.5091 17.2477 11.082 16.0394 11.082C14.8102 11.082 13.774 11.5091 12.9307 12.3633C12.0873 13.2174 11.6652 14.2487 11.6644 15.457C11.6636 16.6654 12.0857 17.6966 12.9307 18.5508C13.7757 19.4049 14.8119 19.832 16.0394 19.832Z" fill="white"/>
</g>
</svg>
