<svg width="31" height="31" viewBox="0 0 31 31" fill="none" xmlns="http://www.w3.org/2000/svg">
<g id="material-symbols:inventory">
<path id="Vector" d="M20.3518 25.4736L15.0393 20.1611L16.7893 18.4111L20.3518 21.9736L27.4143 14.9111L29.1643 16.6611L20.3518 25.4736ZM27.2268 13.0674H24.7268V6.81738H22.2268V10.5674H9.72681V6.81738H7.22681V24.3174H14.7268V26.8174H7.22681C6.53931 26.8174 5.95097 26.5728 5.46181 26.0836C4.97264 25.5945 4.72764 25.0057 4.72681 24.3174V6.81738C4.72681 6.12988 4.97181 5.54155 5.46181 5.05238C5.95181 4.56322 6.54014 4.31822 7.22681 4.31738H12.4456C12.6747 3.58822 13.1226 2.98947 13.7893 2.52113C14.456 2.0528 15.1851 1.81822 15.9768 1.81738C16.8101 1.81738 17.5551 2.05197 18.2118 2.52113C18.8685 2.9903 19.311 3.58905 19.5393 4.31738H24.7268C25.4143 4.31738 26.0031 4.56238 26.4931 5.05238C26.9831 5.54238 27.2276 6.13072 27.2268 6.81738V13.0674ZM15.9768 6.81738C16.331 6.81738 16.6281 6.69738 16.8681 6.45738C17.1081 6.21738 17.2276 5.92072 17.2268 5.56738C17.226 5.21405 17.106 4.91738 16.8668 4.67738C16.6276 4.43738 16.331 4.31738 15.9768 4.31738C15.6226 4.31738 15.326 4.43738 15.0868 4.67738C14.8476 4.91738 14.7276 5.21405 14.7268 5.56738C14.726 5.92072 14.846 6.2178 15.0868 6.45863C15.3276 6.69947 15.6243 6.81905 15.9768 6.81738Z" fill="white"/>
</g>
</svg>
