<svg width="31" height="31" viewBox="0 0 31 31" fill="none" xmlns="http://www.w3.org/2000/svg">
<g id="si:insights-fill">
<path id="Vector" fill-rule="evenodd" clip-rule="evenodd" d="M5.97681 4.65088C5.97681 4.31936 5.84511 4.00142 5.61069 3.767C5.37627 3.53257 5.05833 3.40088 4.72681 3.40088C4.39529 3.40088 4.07734 3.53257 3.84292 3.767C3.6085 4.00142 3.47681 4.31936 3.47681 4.65088V26.1509C3.47681 26.7476 3.71386 27.3199 4.13582 27.7419C4.55777 28.1638 5.13007 28.4009 5.72681 28.4009H27.2268C27.5583 28.4009 27.8763 28.2692 28.1107 28.0348C28.3451 27.8003 28.4768 27.4824 28.4768 27.1509C28.4768 26.8194 28.3451 26.5014 28.1107 26.267C27.8763 26.0326 27.5583 25.9009 27.2268 25.9009H5.97681V4.65088ZM28.1106 10.5346C28.3383 10.2989 28.4642 9.98312 28.4614 9.65538C28.4586 9.32763 28.3271 9.01412 28.0953 8.78236C27.8636 8.5506 27.5501 8.41913 27.2223 8.41629C26.8946 8.41344 26.5788 8.53943 26.3431 8.76713L18.4768 16.6334L14.3606 12.5171C14.1261 12.2828 13.8083 12.1511 13.4768 12.1511C13.1454 12.1511 12.8275 12.2828 12.5931 12.5171L7.59306 17.5171C7.47367 17.6324 7.37844 17.7704 7.31293 17.9229C7.24742 18.0754 7.21294 18.2394 7.21149 18.4054C7.21005 18.5714 7.24168 18.736 7.30453 18.8896C7.36738 19.0432 7.4602 19.1828 7.57756 19.3001C7.69493 19.4175 7.83449 19.5103 7.98811 19.5732C8.14173 19.636 8.30633 19.6676 8.47231 19.6662C8.63828 19.6648 8.80231 19.6303 8.95481 19.5648C9.10732 19.4992 9.24525 19.404 9.36056 19.2846L13.4768 15.1684L17.5931 19.2846C17.8275 19.519 18.1454 19.6506 18.4768 19.6506C18.8083 19.6506 19.1261 19.519 19.3606 19.2846L28.1106 10.5346Z" fill="white"/>
</g>
</svg>
