<svg width="31" height="31" viewBox="0 0 31 31" fill="none" xmlns="http://www.w3.org/2000/svg">
<g id="tdesign:help-circle">
<path id="Vector" d="M15.9768 26.929C17.4542 26.929 18.9171 26.638 20.282 26.0726C21.6469 25.5072 22.8871 24.6786 23.9318 23.6339C24.9764 22.5892 25.8051 21.3491 26.3705 19.9841C26.9358 18.6192 27.2268 17.1563 27.2268 15.679C27.2268 14.2016 26.9358 12.7387 26.3705 11.3738C25.8051 10.0089 24.9764 8.76866 23.9318 7.724C22.8871 6.67934 21.6469 5.85068 20.282 5.28531C18.9171 4.71994 17.4542 4.42896 15.9768 4.42896C12.9931 4.42896 10.1316 5.61422 8.02186 7.724C5.91207 9.83379 4.72681 12.6953 4.72681 15.679C4.72681 18.6626 5.91207 21.5241 8.02186 23.6339C10.1316 25.7437 12.9931 26.929 15.9768 26.929ZM29.7268 15.679C29.7268 23.2727 23.5706 29.429 15.9768 29.429C8.38306 29.429 2.22681 23.2727 2.22681 15.679C2.22681 8.08521 8.38306 1.92896 15.9768 1.92896C23.5706 1.92896 29.7268 8.08521 29.7268 15.679ZM17.2318 23.4965H14.7268V20.9915H17.2318V23.4965ZM14.7268 19.7415V18.179C14.7268 17.0952 15.2143 16.2127 15.7593 15.5415C16.2993 14.879 16.9768 14.324 17.5218 13.894C17.8261 13.654 18.0704 13.3466 18.2355 12.9961C18.4006 12.6455 18.482 12.2614 18.4732 11.874C18.4643 11.4866 18.3656 11.1066 18.1847 10.7639C18.0038 10.4212 17.7458 10.1252 17.4309 9.8994C17.116 9.67355 16.753 9.52399 16.3704 9.46252C15.9878 9.40106 15.5962 9.42936 15.2264 9.54521C14.8566 9.66106 14.5188 9.86128 14.2397 10.1301C13.9606 10.3988 13.7478 10.7288 13.6181 11.094L13.2018 12.274L10.8456 11.4415L11.2618 10.2627C11.5199 9.53089 11.9447 8.86916 12.5027 8.32987C13.0606 7.79058 13.7364 7.38852 14.4766 7.15551C15.2168 6.92249 16.001 6.86491 16.7673 6.98731C17.5336 7.10971 18.2608 7.40875 18.8916 7.86075C19.5223 8.31276 20.0392 8.90534 20.4014 9.59162C20.7636 10.2779 20.9612 11.039 20.9784 11.8148C20.9956 12.5906 20.8321 13.3598 20.5008 14.0615C20.1694 14.7632 19.6794 15.3781 19.0693 15.8577C18.5306 16.2827 18.0481 16.6902 17.6993 17.119C17.3568 17.5415 17.2268 17.8815 17.2268 18.179V19.7415H14.7268Z" fill="white"/>
</g>
</svg>
