<svg width="31" height="31" viewBox="0 0 31 31" fill="none" xmlns="http://www.w3.org/2000/svg">
<g id="uil:files-landscapes-alt">
<path id="Vector" d="M23.4768 24.5396H8.47681C7.48224 24.5396 6.52842 24.1445 5.82516 23.4412C5.12189 22.7379 4.72681 21.7841 4.72681 20.7896V10.7896C4.72681 10.458 4.59511 10.1401 4.36069 9.90567C4.12627 9.67125 3.80833 9.53955 3.47681 9.53955C3.14529 9.53955 2.82734 9.67125 2.59292 9.90567C2.3585 10.1401 2.22681 10.458 2.22681 10.7896V20.7896C2.22681 22.4472 2.88529 24.0369 4.05739 25.209C4.63776 25.7893 5.32675 26.2497 6.08503 26.5638C6.84332 26.8779 7.65604 27.0396 8.47681 27.0396H23.4768C23.8083 27.0396 24.1263 26.9079 24.3607 26.6734C24.5951 26.439 24.7268 26.1211 24.7268 25.7896C24.7268 25.458 24.5951 25.1401 24.3607 24.9057C24.1263 24.6712 23.8083 24.5396 23.4768 24.5396ZM18.4768 14.5396H13.4768C13.1453 14.5396 12.8273 14.6712 12.5929 14.9057C12.3585 15.1401 12.2268 15.458 12.2268 15.7896C12.2268 16.1211 12.3585 16.439 12.5929 16.6734C12.8273 16.9079 13.1453 17.0396 13.4768 17.0396H18.4768C18.8083 17.0396 19.1263 16.9079 19.3607 16.6734C19.5951 16.439 19.7268 16.1211 19.7268 15.7896C19.7268 15.458 19.5951 15.1401 19.3607 14.9057C19.1263 14.6712 18.8083 14.5396 18.4768 14.5396ZM29.7268 13.2146C29.7139 13.0997 29.6887 12.9866 29.6518 12.8771V12.7646C29.5931 12.6352 29.5128 12.5169 29.4143 12.4146L21.9143 4.91455C21.812 4.81608 21.6936 4.73576 21.5643 4.67705H21.4518C21.3246 4.60483 21.1844 4.55812 21.0393 4.53955H10.9768C9.98224 4.53955 9.02842 4.93464 8.32516 5.6379C7.62189 6.34116 7.22681 7.29499 7.22681 8.28955V18.2896C7.22681 19.2841 7.62189 20.2379 8.32516 20.9412C9.02842 21.6445 9.98224 22.0396 10.9768 22.0396H25.9768C26.9714 22.0396 27.9252 21.6445 28.6285 20.9412C29.3317 20.2379 29.7268 19.2841 29.7268 18.2896V13.2146ZM22.2268 8.80205L25.4643 12.0396H23.4768C23.1453 12.0396 22.8273 11.9079 22.5929 11.6734C22.3585 11.439 22.2268 11.1211 22.2268 10.7896V8.80205ZM27.2268 18.2896C27.2268 18.6211 27.0951 18.939 26.8607 19.1734C26.6263 19.4079 26.3083 19.5396 25.9768 19.5396H10.9768C10.6453 19.5396 10.3273 19.4079 10.0929 19.1734C9.8585 18.939 9.72681 18.6211 9.72681 18.2896V8.28955C9.72681 7.95803 9.8585 7.64009 10.0929 7.40567C10.3273 7.17125 10.6453 7.03955 10.9768 7.03955H19.7268V10.7896C19.7268 11.7841 20.1219 12.7379 20.8252 13.4412C21.5284 14.1445 22.4822 14.5396 23.4768 14.5396H27.2268V18.2896ZM13.4768 12.0396H15.9768C16.3083 12.0396 16.6263 11.9079 16.8607 11.6734C17.0951 11.439 17.2268 11.1211 17.2268 10.7896C17.2268 10.458 17.0951 10.1401 16.8607 9.90567C16.6263 9.67125 16.3083 9.53955 15.9768 9.53955H13.4768C13.1453 9.53955 12.8273 9.67125 12.5929 9.90567C12.3585 10.1401 12.2268 10.458 12.2268 10.7896C12.2268 11.1211 12.3585 11.439 12.5929 11.6734C12.8273 11.9079 13.1453 12.0396 13.4768 12.0396Z" fill="white"/>
</g>
</svg>
